<?xml version="1.0" standalone="no"?>
<!DOCTYPE svg PUBLIC "-//W3C//DTD SVG 20010904//EN"
 "http://www.w3.org/TR/2001/REC-SVG-20010904/DTD/svg10.dtd">
<svg version="1.0" xmlns="http://www.w3.org/2000/svg"
 width="200.000000pt" height="200.000000pt" viewBox="0 0 200.000000 200.000000"
 preserveAspectRatio="xMidYMid meet">
<metadata>
Created by potrace 1.10, written by Peter Selinger 2001-2011
</metadata>
<g transform="translate(0.000000,200.000000) scale(0.100000,-0.100000)"
fill="#ffffff" stroke="none">
<path d="M362 1192 l-172 -175 22 -24 22 -24 67 67 66 66 24 -91 c22 -84 38
-108 54 -81 3 5 -6 53 -20 107 l-27 96 71 71 71 71 153 -153 153 -153 23 25
23 24 -73 70 -73 69 3 87 3 86 -31 0 c-31 0 -31 -1 -31 -50 0 -47 11 -65 24
-37 3 6 4 -8 3 -33 -3 -43 -1 -47 71 -122 132 -138 56 -83 -93 68 -132 133
-146 144 -166 134 -27 -15 -121 -108 -144 -144 -10 -14 -22 -26 -28 -26 -6 0
-34 -25 -63 -56 -29 -31 -58 -54 -64 -52 -6 2 62 76 151 164 l161 161 65 -64
c61 -59 83 -74 83 -56 0 9 -143 153 -150 152 -3 -1 -83 -80 -178 -177z"/>
<path d="M627 1087 c-10 -15 -12 -29 -6 -38 7 -11 9 -11 9 3 0 9 7 21 15 25 8
5 11 13 6 21 -6 10 -12 7 -24 -11z"/>
<path d="M674 1086 c3 -14 1 -28 -4 -31 -6 -4 -8 -10 -5 -15 6 -10 -16 -27
-37 -27 -10 0 -19 12 -23 31 -6 30 -7 30 -20 12 -21 -28 -20 -32 24 -54 35
-19 41 -19 58 -6 10 9 12 13 3 9 -9 -4 -7 0 4 9 10 8 15 20 11 26 -4 7 -2 16
5 20 7 4 9 16 5 29 -9 30 -29 27 -21 -3z"/>
<path d="M585 848 l0 -78 43 0 c33 0 42 4 42 17 0 13 -3 14 -12 5 -7 -7 -20
-12 -31 -12 -15 0 -18 7 -15 43 2 33 7 41 20 39 9 -1 19 2 23 8 4 6 -4 10 -19
10 -16 0 -26 6 -26 15 0 18 31 20 49 3 11 -11 13 -10 9 2 -3 9 -21 17 -44 20
l-39 6 0 -78z"/>
<path d="M1125 847 l0 -79 47 4 c26 3 50 2 54 -1 3 -3 20 -6 38 -6 33 0 33 0
29 40 -7 60 -10 65 -43 65 -25 0 -30 -4 -30 -22 1 -21 2 -21 11 -5 12 21 39
23 39 2 0 -8 -6 -15 -13 -15 -8 0 -27 -11 -43 -25 -47 -40 -54 -34 -54 48 0
63 -2 73 -17 73 -16 0 -18 -11 -18 -79z m145 -42 c0 -16 -27 -32 -37 -21 -7 7
16 36 28 36 5 0 9 -7 9 -15z"/>
<path d="M1597 900 c4 -23 1 -29 -17 -35 -38 -12 -50 -85 -15 -98 7 -3 24 -3
37 1 21 7 23 12 23 79 0 59 -3 73 -17 76 -14 4 -16 0 -11 -23z m3 -80 c0 -29
-4 -40 -15 -40 -18 0 -21 50 -3 68 17 17 18 16 18 -28z"/>
<path d="M427 898 c-24 -22 -45 -78 -30 -78 5 1 32 14 62 29 l54 28 -21 21
c-27 27 -35 27 -65 0z m-2 -38 c-4 -12 -9 -19 -12 -17 -3 3 -2 15 2 27 4 12 9
19 12 17 3 -3 2 -15 -2 -27z"/>
<path d="M535 870 c-7 -12 2 -30 16 -30 5 0 9 9 9 20 0 21 -15 27 -25 10z"/>
<path d="M1701 871 c-7 -5 -21 -7 -30 -4 -13 3 -16 -5 -16 -46 0 -34 4 -51 13
-51 7 0 12 15 12 40 0 41 7 49 28 28 9 -9 12 -6 12 15 0 30 0 30 -19 18z"/>
<path d="M688 819 c3 -30 9 -49 16 -49 8 0 11 12 8 33 -4 38 23 73 34 43 4 -9
4 -30 0 -46 -4 -22 -2 -30 9 -30 11 0 15 11 15 40 0 29 4 40 15 40 11 0 15
-11 15 -40 0 -26 5 -40 13 -40 10 0 11 12 7 48 l-5 47 -65 2 -65 1 3 -49z"/>
<path d="M858 819 c4 -55 22 -68 22 -15 0 36 24 68 33 44 2 -7 2 -28 -1 -45
-3 -26 -1 -33 11 -33 11 0 17 12 19 43 2 23 8 42 13 42 6 0 11 -19 13 -42 2
-26 8 -43 16 -43 8 0 10 13 6 48 l-5 47 -65 2 -65 1 3 -49z"/>
<path d="M1020 855 c0 -17 16 -20 25 -5 9 14 25 12 25 -3 0 -7 -10 -17 -22
-22 -28 -12 -36 -50 -12 -59 10 -4 22 -2 27 3 5 5 16 7 23 4 10 -4 14 3 14 23
0 59 -10 74 -46 74 -24 0 -34 -5 -34 -15z m50 -55 c0 -11 -7 -20 -15 -20 -27
0 -18 30 13 39 1 1 2 -8 2 -19z"/>
<path d="M1320 832 c0 -46 21 -79 41 -66 8 5 21 7 29 6 12 -2 14 7 12 48 -3
30 -9 50 -16 50 -7 0 -10 -14 -8 -39 2 -23 -1 -42 -8 -46 -18 -11 -29 14 -23
52 4 26 2 33 -11 33 -12 0 -16 -10 -16 -38z"/>
<path d="M1435 819 c0 -32 4 -49 13 -49 7 0 12 15 12 41 0 33 3 40 18 37 13
-3 16 -12 14 -41 -2 -28 1 -37 13 -37 11 0 15 10 15 38 0 50 -9 60 -50 60
l-35 0 0 -49z"/>
<path d="M1730 834 c0 -52 16 -77 40 -64 24 13 26 2 4 -28 -8 -12 -11 -22 -5
-22 5 0 17 10 25 22 20 28 22 128 4 128 -8 0 -13 -15 -13 -42 0 -24 -5 -43
-12 -45 -9 -3 -13 9 -13 41 0 34 -4 46 -15 46 -11 0 -15 -11 -15 -36z"/>
<path d="M460 830 l-55 -28 -1 -86 c0 -63 3 -86 12 -86 8 0 14 18 16 48 l4 47
8 -43 c8 -37 11 -42 30 -36 29 9 29 8 17 50 -14 50 -6 56 13 10 16 -39 27 -44
45 -22 10 11 9 21 -2 42 -9 18 -16 23 -21 15 -6 -9 -11 -9 -21 -1 -17 14 -35
5 -35 -17 0 -14 -3 -14 -20 2 -32 29 -26 61 14 80 19 9 39 14 44 11 5 -3 22
-31 37 -62 25 -51 29 -54 43 -40 14 14 14 18 -5 38 -11 13 -31 42 -44 64 l-24
42 -55 -28z"/>
<path d="M340 755 c0 -9 5 -15 11 -13 6 2 11 8 11 13 0 5 -5 11 -11 13 -6 2
-11 -4 -11 -13z"/>
<path d="M364 726 c-7 -18 1 -46 14 -46 9 0 9 47 -1 56 -4 4 -9 -1 -13 -10z"/>
</g>
</svg>
